<svg xmlns="http://www.w3.org/2000/svg" viewBox="0 0 750 500"><path d="M704.18 191.6c-7.88-28.38-60.41 2.49-60.41 2.49l13.75-24.94a55.07 55.07 0 004.35-7.89c6.91-15.44 6.82-32 0-46.34-1.87-8.73-7.62-21.21-23.35-34.92C608.75 54.15 508.94 36.45 480 40.38s26.27 16.09 26.27 16.09h-4.37c-84.15-8.92-168.82-10.07-252.83-8.33-21.07.43-42.2 1.13-62.83 4.68-5.93 1-12.31 2.59-15.85 7.38C154.75 81.43 218.9 83.5 229 83.09c-44.07 5.73-93 7.49-134 24.52-5.71 2.37-11.38 5.19-15.69 9.58s-7.11 10.64-6.14 16.91c2.83 18.19 27.83 23.59 42.07 27.63 0 0-81.72 54.34-72.09 81.92a96.66 96.66 0 0020.91 35.22A135.83 135.83 0 0048 303.73c-2.61 5.34-6 12.65-3.11 18.8 14.88 31.32 240.61 138.86 421.49 108.16 48.05-8.15 95.91-21.63 138-45.47 41.92-23.73 84.64-62.93 95.2-112.35.35-1.63.6-3.21.78-4.75 6.64-22.77 10.42-52.78 3.82-76.52z" fill="#ffa95e"/><path d="M704.18 191.6c-7.88-28.38-60.41 2.49-60.41 2.49l13.75-24.94a55.07 55.07 0 004.35-7.89c6.91-15.44 6.82-32 0-46.34-1.87-8.73-7.62-21.21-23.35-34.92C608.75 54.15 508.94 36.45 480 40.38s26.27 16.09 26.27 16.09h-4.37c-84.15-8.92-168.82-10.07-252.83-8.33-21.07.43-42.2 1.13-62.83 4.68-5.93 1-12.31 2.59-15.85 7.38C154.75 81.43 218.9 83.5 229 83.09c-44.07 5.73-93 7.49-134 24.52-5.71 2.37-11.38 5.19-15.69 9.58s-6 10.56-6.14 16.91c-.4 16.77 26.56 23 42.11 27.63 0 0-81.72 54.34-72.09 81.92a96.66 96.66 0 0020.91 35.22A135.83 135.83 0 0048 303.73c-2.61 5.34-6 12.65-3.11 18.8 14.88 31.32 240.61 138.86 421.49 108.16 48.05-8.15 95.91-21.63 138-45.47 41.92-23.73 84.64-62.93 95.2-112.35.35-1.63.6-3.21.78-4.75 6.64-22.77 10.42-52.78 3.82-76.52z" fill="#fff" opacity=".8"/><g fill="#263238"><path d="M575.46 161.92l-.49-.45c-.06-.05-6-5.42-10.79-4.47s-5.71 3.64-5.75 3.76l-.95-.32c0-.14 1.18-3.35 6.5-4.42 4.51-.9 9.6 3 11.18 4.29 1-1.91 4.56-7.91 8.25-8.37 4.25-.53 8.85 3 9 3.16l-.61.79c-.05 0-4.49-3.44-8.31-3s-7.74 8.32-7.78 8.4zM562.19 181.31l-.49-.45c-.06-.05-6-5.43-10.79-4.47s-5.7 3.64-5.74 3.75l-.95-.32c0-.13 1.17-3.34 6.5-4.41 4.5-.9 9.59 3 11.17 4.29 1-1.91 4.56-7.92 8.25-8.38 4.26-.52 8.85 3 9 3.17l-.61.79s-4.48-3.45-8.3-3-7.74 8.32-7.78 8.4zM606.52 181.31l-.49-.45s-4.51-4.09-8.11-3.37-4.25 2.69-4.28 2.78l-.95-.32c0-.11.92-2.62 5-3.44 3.36-.67 7.16 2.1 8.49 3.2.87-1.59 3.52-6 6.3-6.32 3.28-.4 6.82 2.32 7 2.44l-.61.79s-3.36-2.6-6.24-2.23c-2.32.29-5 4.66-5.82 6.33zM658.67 201.72l-.49-.45s-2.91-2.62-5.17-2.17-2.66 1.66-2.68 1.71l-1-.32c0-.07.64-1.81 3.44-2.37 2.15-.43 4.54 1.2 5.55 2 .67-1.2 2.34-3.82 4.16-4 2.2-.29 4.6 1.55 4.7 1.63l-.61.79s-2.18-1.66-4-1.43c-1.45.18-3.15 3-3.69 4.06z"/></g><g fill="#263238"><path d="M412.17 178.57H212.43l.54-.78c.22-.32 5.39-7.67 11.9-7.08 1.07.1 2.09.21 3 .32 4.61.51 7.94.88 9.67-1.28a6.31 6.31 0 001-3.34c.29-2.33.61-5 4.91-6.54 2.55-.93 5.2-.22 7.76.47 2.74.74 5.33 1.44 7.61.14s2.69-3.91 3.11-6.67a14 14 0 011.61-5.45c2.75-4.27 8.75-6.55 13.05-6.55h.08c2.9 0 5.5 1.35 8 2.62 2.86 1.46 5.57 2.84 8.58 2.32a6 6 0 004.16-3.69 35 35 0 002.05-7.16c.88-4.21 1.71-8.19 5.72-11.88a30.32 30.32 0 0116.42-7.29c24.56-3.48 51.69 14.79 56.94 38.35 0 .19 1.12 4.76 5.23 4.76a15.53 15.53 0 004.18-1c5.08-1.68 12.75-4.23 18.55 4.7 7.39 11.37 5.92 14.51 5.73 14.83zm-197.77-1h197.12c.15-.89.15-4.42-5.77-13.53-5.38-8.27-12.33-6-17.4-4.29a16.21 16.21 0 01-4.49 1.09c-4.92 0-6.19-5.48-6.21-5.54-5.14-23.09-31.74-41-55.82-37.58a29.35 29.35 0 00-15.89 7c-3.76 3.47-4.56 7.29-5.41 11.34a35.83 35.83 0 01-2.11 7.36 6.89 6.89 0 01-4.91 4.28c-3.34.57-6.32-1-9.21-2.42-2.4-1.22-4.89-2.49-7.55-2.51h-.08c-4.09 0-9.74 2.27-12.21 6.09A13.23 13.23 0 00263 154c-.44 2.87-.9 5.84-3.61 7.38s-5.55.73-8.36 0c-2.41-.65-4.91-1.32-7.16-.5-3.72 1.35-4 3.47-4.25 5.72a7.25 7.25 0 01-1.25 3.85c-2.07 2.59-5.82 2.17-10.56 1.64-1-.11-2-.22-3-.31-4.76-.51-8.91 3.94-10.41 5.79zM447.25 126.83h-80.88l.54-.79c.09-.13 2.26-3.22 5-3l1.23.13c1.93.22 3.05.3 3.61-.4a2.2 2.2 0 00.35-1.19 3 3 0 012.17-2.87 5.37 5.37 0 013.29.18 3.77 3.77 0 002.83.09c.79-.46.93-1.39 1.1-2.46a5.7 5.7 0 01.69-2.31 7 7 0 015.48-2.76 7.49 7.49 0 013.34 1.08 5.33 5.33 0 003.26.9 2.13 2.13 0 001.45-1.3 14.3 14.3 0 00.8-2.82 8.19 8.19 0 012.39-4.92 12.47 12.47 0 016.75-3c10-1.42 21 6 23.17 15.62 0 .07.41 1.67 1.81 1.67a6.14 6.14 0 001.58-.4c2.13-.7 5.33-1.77 7.79 2 2.93 4.51 2.5 5.94 2.3 6.27zm-78.86-1h78.15c0-.53-.33-2-2.29-5s-4.58-2.28-6.63-1.6a6.68 6.68 0 01-1.9.45 3 3 0 01-2.79-2.47c-2-9.11-12.55-16.18-22.05-14.83a11.54 11.54 0 00-6.22 2.75 7.14 7.14 0 00-2.08 4.39 15.17 15.17 0 01-.86 3 3.08 3.08 0 01-2.2 1.89 6.12 6.12 0 01-3.88-1 6.83 6.83 0 00-2.9-1 5.89 5.89 0 00-4.67 2.3 5 5 0 00-.54 1.92c-.18 1.16-.39 2.48-1.6 3.17s-2.39.34-3.58 0a4.61 4.61 0 00-2.69-.21 2 2 0 00-1.51 2 3.09 3.09 0 01-.57 1.69c-.93 1.17-2.51 1-4.5.77l-1.21-.12c-1.43 0-2.74 1.07-3.48 1.9zM617.15 243.28h-80.88l.55-.78c.09-.13 2.26-3.23 5-3l1.23.13c1.93.21 3 .3 3.61-.4a2.29 2.29 0 00.36-1.19 3 3 0 012.16-2.87 5.29 5.29 0 013.29.18 3.72 3.72 0 002.83.08c.79-.45.93-1.38 1.1-2.46a5.81 5.81 0 01.69-2.3 7 7 0 015.52-2.76A7.57 7.57 0 01566 229a5.38 5.38 0 003.26.9 2.12 2.12 0 001.44-1.3 13.82 13.82 0 00.8-2.82 8.19 8.19 0 012.39-4.92 12.4 12.4 0 016.75-3c10-1.42 21 6 23.17 15.61 0 .08.41 1.68 1.81 1.68a6.48 6.48 0 001.58-.4c2.13-.71 5.34-1.77 7.79 2 2.93 4.5 2.5 5.94 2.31 6.27zm-78.86-1h78.15c0-.52-.33-1.95-2.29-5s-4.58-2.28-6.63-1.6a6.68 6.68 0 01-1.9.45 3 3 0 01-2.78-2.46c-2-9.12-12.54-16.2-22.06-14.84a11.46 11.46 0 00-6.22 2.74 7.24 7.24 0 00-2.08 4.39 15 15 0 01-.86 3 3.08 3.08 0 01-2.19 1.9 6.27 6.27 0 01-3.89-1 6.53 6.53 0 00-2.9-1 6 6 0 00-4.64 2.3 5 5 0 00-.54 1.92c-.18 1.16-.39 2.48-1.59 3.17s-2.4.34-3.59 0a4.52 4.52 0 00-2.69-.21 2 2 0 00-1.51 2.05 3.21 3.21 0 01-.56 1.69c-.94 1.17-2.52 1-4.51.77-.38 0-.79-.09-1.21-.12-1.46-.04-2.8 1.06-3.51 1.85zM496.6 237.76H373.38l.55-.78c.13-.2 3.36-4.81 7.48-4.43l1.88.19c2.77.31 4.78.54 5.77-.71a3.78 3.78 0 00.6-2 4.26 4.26 0 013.14-4.17c1.62-.59 3.28-.15 4.88.28s3.2.87 4.53.1 1.57-2.31 1.82-3.95a8.78 8.78 0 011-3.43c1.72-2.68 5.49-4.11 8.18-4.11a11.5 11.5 0 015 1.63c1.74.88 3.37 1.71 5.16 1.41a3.5 3.5 0 002.41-2.16 21.85 21.85 0 001.25-4.36c.55-2.62 1.06-5.09 3.57-7.4a18.84 18.84 0 0110.2-4.53c15.17-2.15 31.95 9.14 35.2 23.71.06.28.72 2.78 3 2.78a9.38 9.38 0 002.51-.63c3.18-1.05 8-2.65 11.62 3 4.52 6.94 3.73 9 3.53 9.32zm-121.23-1h120.56c0-.67-.2-2.87-3.55-8-3.22-5-7.24-3.63-10.46-2.56a10.2 10.2 0 01-2.83.68c-2.49 0-3.69-2.23-4-3.55-3.14-14.09-19.38-25-34.08-22.94a17.78 17.78 0 00-9.66 4.28c-2.27 2.08-2.74 4.3-3.27 6.86a22.45 22.45 0 01-1.31 4.56 4.42 4.42 0 01-3.16 2.74c-2.12.36-4-.58-5.78-1.5a10.54 10.54 0 00-4.56-1.52c-2.47 0-5.89 1.34-7.38 3.65a7.81 7.81 0 00-.87 3c-.28 1.81-.57 3.68-2.31 4.67s-3.52.48-5.29 0c-1.52-.41-2.95-.8-4.28-.31-2.18.79-2.32 2-2.49 3.35a4.54 4.54 0 01-.81 2.47c-1.34 1.67-3.69 1.41-6.66 1.08l-1.86-.2c-2.58-.22-4.88 2.01-5.95 3.24z"/></g><path d="M504.27 390.9s-7.29-7.55-5.25-7.33 5.88 5.88 5.88 5.88.05-12.45 1.87-9.73-.41 9.78-.41 9.78 5.2-8.11 5.19-6.79c0 4.1-4 7.31-4 7.31s8.33-6.17 7-3.67-6.69 4.87-6.69 4.87 9.6-1.94 6.19-.57-6.65 2.3-6.65 2.3h-2.66s-9.06-4.55-5.65-3.87a16.85 16.85 0 015.18 1.82zM600.56 367.26s-5.68-5.88-4.08-5.7 4.57 4.57 4.57 4.57 0-9.69 1.46-7.57-.33 7.61-.33 7.61 4.05-6.31 4-5.28c0 3.19-3.12 5.69-3.12 5.69s6.48-4.81 5.42-2.86-5.2 3.79-5.2 3.79 7.47-1.51 4.81-.45-5.18 1.79-5.18 1.79h-2.06s-7.06-3.54-4.4-3a13.31 13.31 0 014.11 1.41zM690 346.17s-5.67-5.88-4.08-5.7 4.57 4.57 4.57 4.57 0-9.69 1.46-7.57-.32 7.61-.32 7.61 4-6.31 4-5.28c0 3.19-3.12 5.69-3.12 5.69s6.48-4.8 5.42-2.86-5.21 3.79-5.21 3.79 7.47-1.51 4.82-.45-5.18 1.79-5.18 1.79h-2.07s-7-3.54-4.4-3a13.17 13.17 0 014.11 1.41z" fill="#263238"/><path d="M576 394.34s-6.78-7-4.87-6.81 5.46 5.46 5.46 5.46 0-11.57 1.74-9S578 393 578 393s4.84-7.54 4.83-6.31c0 3.81-3.73 6.79-3.73 6.79s7.74-5.73 6.47-3.41-6.21 4.53-6.21 4.53 8.92-1.8 5.75-.53-6.19 2.13-6.19 2.13h-2.46s-8.43-4.22-5.26-3.59a15.93 15.93 0 014.8 1.73z" fill="#ffa95e"/><path fill="#263238" d="M441.52 364.21l-59.65-66.88-13.19 10.55-65.86-99.15-57.26 12.76-17.16-32.05-16.65-.88-31.35-61.84-46.88 42.78-22.71-8.11-82.59 84.2-.71-.7 83.03-84.66 22.75 8.13 47.41-43.26 31.68 62.49 16.63.88 17.07 31.88 57.2-12.74.19.28 65.44 98.53 13.07-10.46 60.29 67.58-.75.67zM446.478 369.784l.746-.666 6.29 7.052-.746.666z"/><path fill="#263238" d="M210.007 229.99l4.96-1.346.262.965-4.96 1.346zM220.553 227.138l25.025-6.79.262.965-25.025 6.79zM151.68 192.35l-.83-.56 13.91-20.53-.94-7.06.06-.14 16.09-32.65.9.44-16.02 32.52.95 7.13-14.12 20.85zM144.997 200.43l3.514-5.192.828.56-3.514 5.193zM100.521 243.468l22.739-30.82.805.594-22.74 30.82zM126.15 210.42l-.81-.59 3.01-4.08 1.39-18.06-12.66-10.32-5.73-12.88.91-.41 5.63 12.67 12.89 10.5-1.45 18.86-3.18 4.31zM216.75 201.04l-4.58-7.63.86-.52 3.94 6.57 11.39-10.87.69.72-12.3 11.73zM447.72 361l-.65-.76 17.44-14.95 34.42 7.38 53.43-74.8.35.12 34.15 11.39 28.01-39.54.41.28 92.02 64.91-.58.82-91.61-64.62-27.86 39.33-34.51-11.5-53.37 74.73-34.59-7.41L447.72 361z"/><path fill="#263238" d="M604.4 299.32l-13.45-5.88.4-.92 12.35 5.4 10.8-47.5.98.22-11.08 48.68zM526.17 360.47l-18.97-3.29.17-.99 18.13 3.15 26.87-78.21.95.32-27.15 79.02z"/><g><path d="M551.6 275.67a43.21 43.21 0 00-43.36 43.06 42.74 42.74 0 0011 28.7 33.11 33.11 0 0115.19 1.39 41.56 41.56 0 0114.74 8.61h3.89a41.65 41.65 0 0114.75-8.61 32.88 32.88 0 0116-1.26A42.75 42.75 0 00595 318.73a43.22 43.22 0 00-43.4-43.06z" fill="#ffa95e"/><path d="M571.78 336l-4 2a39.3 39.3 0 00-3.79 2.34c-.45.31-.89.64-1.34 1l7.11-13.23-9.75 15.26c-1 .8-2 1.61-2.91 2.44q-2.35 2-4.6 4.2l-.5-14.35 10.2-15.53-10.2 13.32-.45-12.84-.76 14.39-.73 14.4c-1.31-1.23-2.63-2.43-4-3.61-1.07-.93-2.16-1.85-3.27-2.73l-9.22-15.75 6.77 13.89c-.39-.28-.77-.57-1.17-.84a39.3 39.3 0 00-3.79-2.34 87.7 87.7 0 00-4-2 82.23 82.23 0 00-8.2-3.47 80.82 80.82 0 017.9 4q1.92 1.08 3.78 2.22a36.51 36.51 0 013.51 2.5 75.28 75.28 0 016.37 5.72 129.9 129.9 0 015.12 5.4l-.86 18.22h4.27l-.61-17.54c1.83-2.1 3.78-4.16 5.78-6.15a75.28 75.28 0 016.37-5.72 36.51 36.51 0 013.51-2.5q1.86-1.14 3.78-2.22a81 81 0 017.91-4 81.41 81.41 0 00-8.23 3.52z" fill="#263238"/><path d="M218.71 334.76c0 12.37-6.94 13.3-15.5 13.3s-15.5-.93-15.5-13.3 6.94-38.24 15.5-38.24 15.5 25.86 15.5 38.24z" fill="#ffa95e"/><path fill="#263238" d="M208.45 340.37l-2.56.18 6.67-4.5-4.76 2.41.65-1.89-2.18 2.66-2.56 1.29-.2-8.88 1.36-3.29-1.39 1.85-.12-5.15 4.25-5.67-4.28 4.38-.26-11.34-.23 7.26-2.72-3.04 2.68 4.43-.36 11.5-2.38-1.55-2.16-3.83.87 2.98-4.24-2.77 7.86 6.78-1.19 37.73h3.23l-.68-29.92.75-.5 3.95-1.12z"/><path d="M635.52 292.15c0 24.17-13.56 26-30.28 26s-30.28-1.83-30.28-26 13.55-74.72 30.28-74.72 30.28 50.57 30.28 74.72z" fill="#ffa95e"/><path d="M635.52 292.15c0 24.17-13.56 26-30.28 26s-30.28-1.83-30.28-26 13.55-74.72 30.28-74.72 30.28 50.57 30.28 74.72z" fill="#fff" opacity=".31"/><path fill="#263238" d="M615.48 303.12l-5.01.34 13.04-8.79-9.31 4.71 1.28-3.68-4.26 5.18-5 2.53-.4-17.36 2.65-6.43-2.71 3.62-.23-10.07 8.3-11.06-8.36 8.55-.51-22.16-.44 14.19-5.33-5.94 5.24 8.66-.71 22.46-4.63-3.03-4.22-7.48 1.69 5.83-8.29-5.42 15.35 13.24-2.32 73.73h6.32l-1.34-58.46 1.47-.98 7.73-2.18z"/><path d="M700.34 301.66c0 12.38-6.94 13.31-15.5 13.31s-15.5-.93-15.5-13.31 6.94-38.23 15.5-38.23 15.5 25.86 15.5 38.23z" fill="#ffa95e"/><path d="M700.34 301.66c0 12.38-6.94 13.31-15.5 13.31s-15.5-.93-15.5-13.31 6.94-38.23 15.5-38.23 15.5 25.86 15.5 38.23z" fill="#fff" opacity=".5"/><path fill="#263238" d="M690.08 307.28l-2.56.17 6.67-4.5-4.77 2.41.66-1.88-2.18 2.65-2.56 1.3-.2-8.89 1.35-3.29-1.38 1.85-.12-5.15 4.25-5.66-4.28 4.38-.26-11.34-.23 7.25-2.72-3.03 2.68 4.43-.37 11.5-2.37-1.56-2.16-3.83.87 2.99-4.24-2.78 7.85 6.78-1.19 37.73h3.24l-.68-29.91.74-.51 3.96-1.11z"/><path d="M68.67 291.2c0 12.37-6.94 13.31-15.5 13.31s-15.5-.94-15.5-13.31 6.94-38.2 15.5-38.2 15.5 25.83 15.5 38.2z" fill="#ffa95e"/><path d="M68.67 291.2c0 12.37-6.94 13.31-15.5 13.31s-15.5-.94-15.5-13.31 6.94-38.2 15.5-38.2 15.5 25.83 15.5 38.2z" fill="#fff" opacity=".5"/><path fill="#263238" d="M58.41 296.81l-2.56.18 6.67-4.5-4.77 2.41.66-1.88-2.18 2.65-2.56 1.29-.2-8.88 1.35-3.29-1.38 1.85-.12-5.15 4.24-5.66-4.27 4.37-.26-11.33-.23 7.25-2.72-3.04 2.68 4.44-.36 11.49-2.38-1.55-2.16-3.83.87 2.99-4.24-2.78 7.85 6.78-1.19 37.73h3.24l-.68-29.92.74-.5 3.96-1.12z"/><path d="M145.46 263.14a43.21 43.21 0 00-43.36 43.06 42.77 42.77 0 0011 28.71 33.07 33.07 0 0115.19 1.38 41.56 41.56 0 0114.74 8.61H147a41.65 41.65 0 0114.75-8.61 33.13 33.13 0 0116-1.26 42.74 42.74 0 0011.15-28.83 43.22 43.22 0 00-43.44-43.06z" fill="#ffa95e"/><path d="M145.46 263.14a43.21 43.21 0 00-43.36 43.06 42.77 42.77 0 0011 28.71 33.07 33.07 0 0115.19 1.38 41.56 41.56 0 0114.74 8.61H147a41.65 41.65 0 0114.75-8.61 33.13 33.13 0 0116-1.26 42.74 42.74 0 0011.15-28.83 43.22 43.22 0 00-43.44-43.06z" fill="#fff" opacity=".33"/><path d="M165.64 323.48l-4 2a37.33 37.33 0 00-3.79 2.33l-1.34 1 7.11-13.24-9.75 15.27q-1.49 1.19-2.91 2.43a130.8 130.8 0 00-4.6 4.2l-.5-14.35 10.2-15.53-10.27 13.36-.45-12.85-.73 14.37-.73 14.41a114.49 114.49 0 00-4-3.62q-1.6-1.39-3.27-2.73l-9.22-15.75 6.77 13.9c-.39-.29-.77-.57-1.17-.85a37.33 37.33 0 00-3.79-2.33c-1.3-.7-2.63-1.37-4-2a82.23 82.23 0 00-8.2-3.47 78.57 78.57 0 018 3.97q1.92 1.08 3.78 2.23a36.42 36.42 0 013.51 2.49 77 77 0 016.37 5.72c1.76 1.75 3.48 3.57 5.12 5.41l-.93 18.28h4.27l-.61-17.54c1.83-2.1 3.78-4.16 5.78-6.15a77 77 0 016.37-5.72 36.42 36.42 0 013.51-2.49Q164 325 165.94 324a78.73 78.73 0 017.91-3.94 81.41 81.41 0 00-8.21 3.42z" fill="#263238"/></g><g fill="#263238"><path d="M265.84 391.65V352h-51.65v-25.4l44.3-105h37.79v105.6h16.37V352h-16.37v39.68zm-26-64.45h26V255zM373.53 391.74q-15.33 0-25.4-6.3A39.14 39.14 0 01333 368.12q-5-11-5-25.5v-76.21q0-14.9 4.82-26.13a37.69 37.69 0 0114.91-17.53q10.08-6.3 25.82-6.3 15.54 0 25.51 6.3a38 38 0 0114.8 17.53q4.82 11.22 4.82 26.13v76.21q0 14.47-5 25.5a39.14 39.14 0 01-15.12 17.32q-10.13 6.3-25.03 6.3zm0-28.55q5.67 0 8.19-3.57a20.6 20.6 0 003.36-8.5 55.72 55.72 0 00.84-9.13V267a67 67 0 00-.74-9.66 20.4 20.4 0 00-3.25-8.71q-2.52-3.66-8.4-3.67t-8.5 3.67a19.64 19.64 0 00-3.36 8.71 67 67 0 00-.74 9.66v75a54.64 54.64 0 00.84 9.13 19 19 0 003.57 8.5q2.73 3.56 8.19 3.56zM487.94 391.65V352H436.3v-25.4l44.29-105h37.79v105.6h16.37V352h-16.37v39.68zm-26-64.45h26V255z"/></g><g><path d="M720.11 309.64c-65.38 42.86-194.5 72-343.1 72-153.16 0-285.63-31-348.94-76V478h692z" fill="#fff"/><path d="M377 382.17c-74.05 0-146.07-7.31-208.27-21.14-60.58-13.46-109.32-32.47-141-55l.58-.81c31.53 22.42 80.14 41.37 140.6 54.81C231.09 373.87 303 381.17 377 381.17c134.14 0 257-23.71 328.65-63.42l.49.88c-71.78 39.78-194.82 63.54-329.14 63.54zM711.44 315.61l-.51-.86c3.18-1.87 6.28-3.8 9.21-5.72l.55.83a222.57 222.57 0 01-9.25 5.75z" fill="#263238"/></g><g><path d="M678.37 299.65c0 25.28-14.18 27.19-31.66 27.19S615 324.93 615 299.65s14.18-78.12 31.67-78.12 31.7 52.84 31.7 78.12z" fill="#ffa95e"/><path fill="#263238" d="M657.41 311.12l-5.24.36 13.65-9.19-9.75 4.92 1.34-3.84-4.45 5.42-5.23 2.64-.41-18.16 2.77-6.71-2.84 3.77-.24-10.52 8.68-11.57-8.74 8.94-.53-23.17-.47 14.83-5.56-6.21 5.47 9.06-.74 23.49-4.84-3.17-4.42-7.82 1.77 6.09-8.66-5.66 16.05 13.84-2.43 77.1h6.61l-1.4-61.13 1.53-1.03 8.08-2.28z"/><path d="M644.57 376.24s-11.68-12.11-8.4-11.75 9.41 9.42 9.41 9.42.09-20 3-15.59-.67 15.68-.67 15.68 8.33-13 8.32-10.88c-.06 6.57-6.43 11.71-6.43 11.71s13.36-9.89 11.2-5.83-10.72 7.8-10.72 7.8 15.39-3.11 9.92-.92-10.67 3.69-10.67 3.69h-4.25s-14.53-7.29-9.06-6.2a26.87 26.87 0 018.35 2.87zM84.73 361.2s-10.11-10.47-7.28-10.15 8.15 8.14 8.15 8.14.07-17.26 2.6-13.48-.58 13.55-.58 13.55 7.21-11.24 7.19-9.41c0 5.69-5.55 10.13-5.55 10.13s11.54-8.55 9.65-5.08-9.27 6.74-9.27 6.74 13.31-2.68 8.58-.79S89 364 89 364h-3.69s-12.56-6.3-7.84-5.36a23.76 23.76 0 017.26 2.56z" fill="#263238"/><path d="M121.26 285.87c0 25.31-14.19 27.22-31.7 27.22s-31.7-1.91-31.7-27.22 14.2-78.21 31.7-78.21 31.7 52.9 31.7 78.21z" fill="#ffa95e"/><path fill="#263238" d="M100.28 297.35l-5.24.36 13.65-9.2-9.75 4.93 1.34-3.85-4.46 5.43-5.23 2.64-.41-18.17 2.77-6.73-2.84 3.78-.24-10.54 8.69-11.58-8.75 8.96-.53-23.2-.47 14.85-5.57-6.22 5.48 9.07-.74 23.51-4.85-3.17-4.42-7.83 1.77 6.1-8.68-5.67 16.08 13.86-2.44 77.18h6.62l-1.4-61.19 1.53-1.03 8.09-2.29z"/></g><g><path d="M195.39 387.51s-10.11-10.47-7.27-10.15 8.15 8.14 8.15 8.14.07-17.26 2.59-13.48-.58 13.55-.58 13.55 7.21-11.24 7.2-9.41c0 5.69-5.56 10.13-5.56 10.13s11.55-8.55 9.66-5.08-9.28 6.79-9.28 6.79 13.31-2.68 8.58-.79-9.23 3.19-9.23 3.19H196s-12.57-6.3-7.84-5.36a23.61 23.61 0 017.23 2.47zM249 410.46s-10.11-10.47-7.27-10.15 8.15 8.14 8.15 8.14.07-17.26 2.59-13.48-.58 13.55-.58 13.55 7.21-11.24 7.2-9.4c-.05 5.68-5.56 10.12-5.56 10.12s11.55-8.55 9.66-5.08-9.19 6.74-9.19 6.74 13.31-2.68 8.58-.79-9.23 3.19-9.23 3.19h-3.67s-12.57-6.3-7.84-5.36a23.61 23.61 0 017.16 2.52zM392.94 395.05s-7.29-7.55-5.24-7.32 5.87 5.87 5.87 5.87.06-12.45 1.88-9.72-.42 9.78-.42 9.78 5.2-8.12 5.19-6.79c0 4.1-4 7.3-4 7.3s8.33-6.17 7-3.66-6.69 4.86-6.69 4.86 9.6-1.94 6.18-.57-6.65 2.3-6.65 2.3h-2.65s-9.07-4.55-5.66-3.87a17.18 17.18 0 015.19 1.82zM676 377s-5.67-5.88-4.08-5.7 4.57 4.57 4.57 4.57 0-9.69 1.46-7.57-.33 7.61-.33 7.61 4-6.31 4-5.28c0 3.19-3.12 5.68-3.12 5.68s6.48-4.8 5.42-2.85-5.2 3.78-5.2 3.78 7.47-1.5 4.81-.44-5.18 1.79-5.18 1.79h-2.05s-7.06-3.54-4.4-3A13.13 13.13 0 01676 377z" fill="#263238"/><path d="M293.9 395.09s-10.11-10.47-7.27-10.15 8.15 8.14 8.15 8.14.07-17.26 2.59-13.48-.57 13.56-.57 13.56 7.21-11.25 7.19-9.41c-.05 5.68-5.55 10.12-5.55 10.12s11.54-8.55 9.65-5.08-9.27 6.74-9.27 6.74 13.3-2.68 8.57-.79-9.22 3.19-9.22 3.19h-3.68s-12.57-6.3-7.84-5.36a23.61 23.61 0 017.25 2.52zM221 388.14s-6.78-7-4.87-6.82 5.46 5.47 5.46 5.47 0-11.58 1.74-9-.39 9.09-.39 9.09 4.84-7.55 4.83-6.31c0 3.81-3.73 6.79-3.73 6.79s7.74-5.74 6.47-3.41-6.21 4.52-6.21 4.52 8.92-1.8 5.75-.53-6.19 2.14-6.19 2.14h-2.46s-8.43-4.23-5.26-3.59a15.61 15.61 0 014.86 1.65zM136.26 415.88s-6.78-7-4.87-6.81 5.46 5.46 5.46 5.46.05-11.58 1.74-9-.39 9.09-.39 9.09 4.8-7.62 4.8-6.35c0 3.81-3.73 6.79-3.73 6.79s7.74-5.74 6.48-3.41-6.22 4.52-6.22 4.52 8.92-1.8 5.75-.53-6.19 2.14-6.19 2.14h-2.46s-8.43-4.23-5.26-3.59a15.61 15.61 0 014.89 1.69zM363 417.24s-6.78-7-4.88-6.81 5.47 5.46 5.47 5.46.05-11.58 1.74-9-.39 9.09-.39 9.09 4.84-7.54 4.82-6.31c0 3.81-3.72 6.79-3.72 6.79s7.74-5.74 6.47-3.41-6.22 4.52-6.22 4.52 8.93-1.8 5.76-.53-6.19 2.14-6.19 2.14h-2.47s-8.42-4.23-5.25-3.59a15.61 15.61 0 014.86 1.65zM473 417.6s-6.77-7-4.87-6.81 5.46 5.47 5.46 5.47.05-11.58 1.74-9-.39 9.08-.39 9.08 4.84-7.54 4.83-6.31c0 3.82-3.73 6.8-3.73 6.8s7.74-5.74 6.48-3.41-6.22 4.52-6.22 4.52 8.92-1.8 5.75-.53-6.19 2.14-6.19 2.14h-2.46s-8.43-4.23-5.26-3.6a15.93 15.93 0 014.86 1.65zM677.47 395.63s-10.32-10.69-7.42-10.37 8.31 8.32 8.31 8.32.08-17.63 2.65-13.76-.59 13.84-.59 13.84 7.37-11.49 7.35-9.61c0 5.8-5.67 10.34-5.67 10.34s11.78-8.73 9.85-5.19-9.46 6.88-9.46 6.88 13.58-2.74 8.75-.81-9.42 3.26-9.42 3.26h-3.75s-12.83-6.44-8-5.47a24.26 24.26 0 017.4 2.57zM62.54 395.63s-10.32-10.69-7.43-10.37 8.32 8.32 8.32 8.32.08-17.63 2.65-13.76-.59 13.84-.59 13.84 7.36-11.49 7.35-9.61c0 5.8-5.67 10.34-5.67 10.34S79 385.66 77 389.2s-9.47 6.88-9.47 6.88 13.59-2.74 8.76-.81-9.42 3.26-9.42 3.26h-3.73s-12.83-6.44-8-5.47a24.26 24.26 0 017.4 2.57zM113.45 380.54s-10.56-18.22-7.55-19.62 9.24 12.45 9.24 12.45-1.21-26.11 1.6-23.7 5.42 20.89 5.42 20.89 5.63-20.09 7.44-15.87-1.45 17-1.45 17 8.07-15.37 8.88-10.35-3.82 13.25-3.82 13.25 10.64-10.64 11.45-6.42-2.81 8.43-2.81 8.43 14.05-7.63 10.64-3.41-8.43 9.64-8.43 9.64 13.45-4.82 11.84-2-7.63 5.82-7.63 5.82 11-2 9.84-.2a16.23 16.23 0 01-4 3.59h-50s-13.25-4.79-8-5.19a23 23 0 0110 1.8s-16.27-11-8.64-11.84 13.86 8.83 13.86 8.83-10.84-15.26-7-12.85z" fill="#ffa95e"/><path d="M114.13 385.72s-13.64-14.13-9.81-13.7 11 11 11 11 .1-23.29 3.5-18.19-.82 18.27-.82 18.27 9.73-15.17 9.71-12.69c-.07 7.67-7.5 13.66-7.5 13.66s15.58-11.53 13-6.86-12.51 9.1-12.51 9.1 18-3.62 11.58-1.07-12.45 4.31-12.45 4.31h-5s-17-8.51-10.57-7.23a31.62 31.62 0 019.87 3.4z" fill="#263238"/><path d="M120 390.05h-5.2l-.11-.06c-12.74-6.39-12.39-7.4-12.25-7.82.22-.64 1.11-.52 2-.34a39 39 0 017.4 2.21c-3.84-4.11-9.38-10.45-8.6-12a1 1 0 011.13-.49c3.22.36 8.38 7.05 10.45 9.93.08-5.48.51-17.14 2.79-17.82.56-.17 1.1.14 1.62.91 2.48 3.72 1.16 11.3.13 15.59 7.12-10.86 8-10.58 8.41-10.47a.69.69 0 01.47.75 17.39 17.39 0 01-4 10.15c4.41-3.06 8.6-5.56 9.51-4.76.56.49.1 1.33-.08 1.65-1.66 3.05-6.23 5.93-9.42 7.66 9.59-1.81 9.77-1.23 9.9-.8.18.61-.55.95-1.67 1.4-6.32 2.53-12.43 4.3-12.49 4.32zm-4.91-1h4.77c.67-.2 6.17-1.83 12-4.12-2.38.27-6.82 1-10.92 1.87l-4.17.84.61.64-3.43-2.14a31.61 31.61 0 00-9.61-3.33l-.39-.07a97.33 97.33 0 0011.05 6.31zm-10.91-16.54c0 1.28 5.28 7.6 10.36 12.86l2.14 2.22 3.92-1.74c.1 0 9.83-4.4 12.27-8.88a2.36 2.36 0 00.18-.37c-1.46.24-7.43 4.14-12.46 7.87l-.61-.79c.07-.05 6.87-5.63 7.29-12.7-1.47 1.48-5.38 7.1-8.77 12.39l-2 3.18 1.14-3.6c0-.13 4.07-13 .84-17.85-.32-.49-.49-.51-.49-.51-1.09.2-2.05 8.63-2.09 18.42v1.61l-.91-1.33c-2-2.89-7.68-10.45-10.63-10.78z" fill="#263238"/><path d="M563.2 412.58s-20-34.42-14.27-37.08S566.4 399 566.4 399s-2.28-49.34 3-44.79 10.25 39.48 10.25 39.48 10.63-38 14.05-30-2.7 32.13-2.7 32.13 15.26-29.05 16.78-19.56-7.21 25.05-7.21 25.05 20.12-20.12 21.64-12.15-5.32 15.95-5.32 15.95 26.57-14.43 20.12-6.46-15.94 18.23-15.94 18.23 25.43-9.12 22.39-3.8-14.42 11-14.42 11 20.88-3.8 18.6-.38-7.58 6.77-7.58 6.77h-94.54s-25.06-9.05-15.19-9.81 19 3.42 19 3.42-30.74-20.88-16.32-22.4 26.19 16.7 26.19 16.7-20.5-28.85-13.28-24.29z" fill="#ffa95e"/><path d="M564.49 422.38s-25.78-26.71-18.49-25.91 20.77 20.78 20.77 20.78.19-44 6.62-34.38-1.47 34.56-1.47 34.56 18.38-28.68 18.34-24c-.13 14.49-14.16 25.82-14.16 25.82s29.43-21.8 24.61-13S577 423.5 577 423.5s33.93-6.85 21.87-2-23.53 8.14-23.53 8.14H566s-32-16.08-20-13.67 18.49 6.41 18.49 6.41z" fill="#263238"/><path d="M575.43 430.11h-9.56l-.11-.05c-10.83-5.44-23.6-12.32-22.93-14.26.23-.67 1.15-.77 3.27-.35a70.1 70.1 0 0115.9 5.06c-5.91-6.25-19.2-20.83-17.71-23.85.18-.38.63-.8 1.69-.68 6.37.7 17 15.18 20.23 19.69.09-8.22.7-33.34 5-34.62.85-.26 1.71.26 2.57 1.54 5.14 7.73 1.44 24.58-.47 31.72 6.16-9.5 14.94-22.43 16.85-21.86.22.07.58.28.57 1-.08 9-5.51 16.88-9.67 21.59 7.43-5.28 18.49-12.64 20.31-11.06.7.61.19 1.76-.25 2.57-3.6 6.59-14.56 12.79-20.31 15.7 20.68-4 21-2.85 21.17-2.39.19.64-.49 1.13-2.88 2.09-12 4.78-23.47 8.12-23.58 8.15zm-9.33-1h9.19c1-.28 12-3.53 23.42-8.1a18.68 18.68 0 001.73-.77c-2.91 0-13.65 1.8-23.33 3.75l-4.46.9 4.16-1.85c.19-.08 18.72-8.39 23.41-17 .59-1.07.46-1.35.46-1.35-1.31-.91-13.65 7-24.34 15l-.61-.79c.14-.11 13.8-11.31 14-25.35-2 1.22-10.32 13.11-17.42 24.18l-2 3.18 1.14-3.6c.08-.25 7.76-24.8 1.53-34.13-.32-.49-.95-1.29-1.44-1.14-3 .9-4.2 22.09-4.26 35.24v1.62l-.9-1.34c-.14-.2-13.49-19.79-20.42-20.56-.18 0-.6-.05-.68.13-1 2.09 10.86 15.84 19.64 24.93l2.81 2.91-3.44-2.14c-.06 0-6.51-4-18.32-6.37a7.28 7.28 0 00-2-.22c1.03 1.64 11.85 7.7 22.13 12.87z" fill="#263238"/></g><g><path d="M147.85 381.57s2-1.85 3.79-1.85 7.1 2.57 7.1 2.57 2.14 3.3 2.33 3.5 2.82 1.32 3 1.78.58 2 .58 2h-16.32l-3-7.92z" fill="#fff"/><path d="M165.32 390.05H148l-3.39-8.9 3.05-.08c.52-.43 2.33-1.85 4-1.85 1.81 0 6.76 2.36 7.32 2.62l.12.06.08.12c1 1.53 2.13 3.25 2.28 3.43l.72.36c1.62.8 2.22 1.16 2.39 1.56s.57 1.89.61 2.05zm-16.64-1H164a12.75 12.75 0 00-.39-1.29 16 16 0 00-1.91-1.06 4.33 4.33 0 01-1-.56c-.2-.2-1.51-2.2-2.32-3.46-1.56-.74-5.45-2.46-6.76-2.46-1.54 0-3.44 1.7-3.46 1.72l-.14.12-2 .06z" fill="#263238"/><path d="M151.64 379.72l-.1 1.56s4.18 2.43 4.09 3.31a16.47 16.47 0 01-1 2.91l2.14 2.24h-11.35l.87-6.71s2.43-3.5 5.35-3.31z" fill="#263238"/><path d="M126.55 380.6s8.17-12.26 10-12.45a9.05 9.05 0 017.19 3.89 44.89 44.89 0 012.92 7.78c.1.29.49.49 2.72 4.08s2.14 5.65 2.14 5.65h-31.59a19.12 19.12 0 011.85-5.06 7.26 7.26 0 013.89-2.53z" fill="#fff"/><path d="M152 390.05h-32.7l.12-.61a19.64 19.64 0 011.92-5.22 7.46 7.46 0 014-2.69l.78-1.21c2-2.92 8.45-12.46 10.38-12.67a9.58 9.58 0 017.69 4.14 38.93 38.93 0 012.88 7.62l.07.25.19.25c.32.43 1 1.33 2.49 3.73 2.29 3.69 2.22 5.84 2.21 5.93zm-31.45-1H151a13.1 13.1 0 00-2-4.88 43.71 43.71 0 00-2.44-3.65 1.77 1.77 0 01-.33-.54 2.11 2.11 0 01-.09-.29 35.42 35.42 0 00-2.79-7.4 8.53 8.53 0 00-6.71-3.64c-1 .15-5.73 6.33-9.65 12.22l-1 1.53-.2.05a6.76 6.76 0 00-3.59 2.3 16.73 16.73 0 00-1.63 4.3z" fill="#263238"/><path d="M139.09 389.35s-.87-2.14-1-2.43-.1-3.11-.39-4.28a30 30 0 00-2.72-4.77l1.75-5.05-.88-.68 1.46-3.6-.81-.38c-1.92.34-10 12.44-10 12.44l-.88 1.36a7.26 7.26 0 00-3.89 2.53 18.06 18.06 0 00-1.8 4.86z" fill="#263238"/><path d="M462.84 384.62a4.57 4.57 0 012.38-1.16c1.1 0 4.45 1.61 4.45 1.61s1.34 2.07 1.46 2.19 1.77.83 1.89 1.12.37 1.24.37 1.24h-10.25l-1.89-5z" fill="#fff"/><path d="M474 390.12h-11.2l-2.26-5.94 2.11-.06a4.67 4.67 0 012.57-1.16c1.18 0 4.31 1.49 4.67 1.66l.12.06.08.12c.61.95 1.31 2 1.42 2.13s.18.07.39.18c1.07.54 1.45.77 1.58 1.07a11.72 11.72 0 01.39 1.31zm-10.54-1h9.25c-.07-.24-.14-.45-.18-.55s-.8-.41-1.11-.57a2.44 2.44 0 01-.67-.39 18.78 18.78 0 01-1.45-2.15 17.43 17.43 0 00-4.11-1.5 4 4 0 00-2.05 1l-.13.12h-1.07z" fill="#263238"/><path d="M465.22 383.46l-.06 1s2.62 1.53 2.56 2.08a10.16 10.16 0 01-.61 1.83l1.34 1.4h-7.14l.55-4.21s1.53-2.22 3.36-2.1z" fill="#263238"/><path d="M449.48 384s5.13-7.69 6.29-7.81a5.72 5.72 0 014.51 2.44 28.53 28.53 0 011.83 4.88c.06.18.3.31 1.71 2.56a7 7 0 011.34 3.54h-19.82a11.74 11.74 0 011.16-3.17 4.56 4.56 0 012.44-1.59z" fill="#fff"/><path d="M465.63 390.12h-20.91l.13-.61a12.44 12.44 0 011.22-3.33 4.88 4.88 0 012.55-1.75l.45-.7c2-2.94 5.43-7.9 6.64-8a6.14 6.14 0 015 2.68 23.86 23.86 0 011.83 4.83v.14l.09.11c.2.27.63.83 1.57 2.35a7.46 7.46 0 011.42 3.82zm-19.65-1h18.62a8.69 8.69 0 00-1.21-2.78c-.92-1.47-1.33-2-1.52-2.27a1.42 1.42 0 01-.24-.39l-.05-.18a22.47 22.47 0 00-1.74-4.61 5.17 5.17 0 00-4-2.19c-.67.22-3.6 4.11-5.92 7.58l-.65 1-.19.05a4 4 0 00-2.14 1.36 9.44 9.44 0 00-.94 2.43z" fill="#263238"/><path d="M457.35 389.5s-.55-1.35-.61-1.53-.06-2-.24-2.68a19.56 19.56 0 00-1.71-3l1.1-3.17-.55-.43.91-2.25-.51-.24c-1.2.21-6.26 7.8-6.26 7.8l-.54.85a4.56 4.56 0 00-2.44 1.59 11.17 11.17 0 00-1.13 3.05z" fill="#263238"/><path d="M628.22 414.53s3.86-3.49 7.17-3.49 13.42 4.86 13.42 4.86 4.05 6.23 4.41 6.61 5.33 2.49 5.7 3.36 1.1 3.74 1.1 3.74h-30.88l-5.7-14.95z" fill="#fff"/><path d="M660.67 430.11H628.8l-6.08-15.94L628 414c.75-.65 4.23-3.5 7.36-3.5 3.39 0 13.22 4.71 13.64 4.91l.12.06.08.12c1.53 2.36 4.07 6.21 4.35 6.53.12.09.86.46 1.51.79 2.75 1.37 4 2.09 4.29 2.73.38.89 1.1 3.69 1.13 3.81zm-31.18-1h29.89c-.24-.89-.67-2.46-.92-3s-2.66-1.65-3.82-2.23a9.27 9.27 0 01-1.77-1c-.37-.37-3.36-5-4.4-6.57-1.17-.55-10.11-4.75-13.08-4.75s-6.8 3.33-6.83 3.36l-.14.13-4.26.11z" fill="#263238"/><path d="M635.39 411l-.18 2.94s7.9 4.6 7.72 6.25a31.36 31.36 0 01-1.84 5.52l4 4.23h-21.5l1.65-12.69s4.64-6.57 10.15-6.25z" fill="#263238"/><path d="M588 412.7s15.45-23.16 18.94-23.53 10.84 2.57 13.6 7.35 5.33 14.16 5.52 14.71.92.92 5.14 7.72 4.05 10.66 4.05 10.66h-59.79s1.29-6.07 3.5-9.56 7.35-4.78 7.35-4.78z" fill="#fff"/><path d="M635.68 430.11h-60.83l.13-.6c0-.26 1.33-6.2 3.55-9.73 2.07-3.27 6.47-4.66 7.46-4.94l1.56-2.42c1.59-2.39 15.67-23.37 19.3-23.75s11.22 2.63 14.08 7.6c1.65 2.85 3.47 7.66 5.42 14.31.07.26.12.43.14.49a3.18 3.18 0 00.41.6c.61.81 1.87 2.48 4.69 7 4.26 6.86 4.12 10.79 4.12 10.95zm-59.59-1h58.6c-.11-1.21-.71-4.68-4-9.9a82.69 82.69 0 00-4.64-6.93 3.45 3.45 0 01-.56-.9l-.15-.52c-1.93-6.57-3.72-11.31-5.32-14.09-2.63-4.56-9.78-7.47-13.12-7.11-2.37.25-12.65 14.43-18.57 23.31l-1.76 2.74-.19.05s-5 1.28-7 4.56a33.84 33.84 0 00-3.29 8.79z" fill="#263238"/><path d="M611.68 429.24s-1.66-4-1.84-4.59-.18-5.89-.74-8.09-5.14-9-5.14-9l3.31-9.56-1.66-1.29 2.76-6.8-1.54-.71c-3.62.65-18.87 23.51-18.87 23.51l-1.65 2.57s-5.15 1.29-7.35 4.78c-1.89 3-3.1 7.84-3.41 9.19z" fill="#263238"/></g></svg>