<svg width="128" height="32" fill="none" xmlns="http://www.w3.org/2000/svg"><path fill-rule="evenodd" clip-rule="evenodd" d="M127.957 15.393c0 8.552-6.998 15.393-15.746 15.393h-7.435c-1.968 0-3.499-1.496-3.718-3.42v-.214c0-1.924 1.75-3.635 3.718-3.635h7.435c4.593 0 8.31-3.634 8.31-8.124s-3.717-8.124-8.31-8.124h-7.435c-1.968 0-3.718-1.71-3.718-3.635v-.213c.219-1.924 1.75-3.421 3.718-3.421h7.435c8.748 0 15.746 6.841 15.746 15.393z" fill="url(#prefix__paint0_linear_146_245)"/><path fill-rule="evenodd" clip-rule="evenodd" d="M122.708 15.393c0 7.055-5.904 12.828-13.121 12.828h-6.342c-.874 0-1.53-.428-2.187-.855v-.214c0-1.924 1.75-3.635 3.718-3.635h7.435c4.593 0 8.31-3.634 8.31-8.124s-3.717-8.124-8.31-8.124h-7.435c-1.968 0-3.718-1.71-3.718-3.635v-.213c.657-.428 1.313-.856 2.187-.856h6.342c7.217 0 13.121 5.773 13.121 12.828z" fill="url(#prefix__paint1_linear_146_245)"/><path fill-rule="evenodd" clip-rule="evenodd" d="M110.123 11.273l6.65 2.466v4.227l-6.65-2.466-6.65 2.466v-4.227l6.65-2.466z" fill="#F6862B"/><path d="M88.43 9.457c.841.99 1.426 1.889 1.754 2.696.328.788.492 1.586.492 2.394 0 1.555-.533 2.807-1.6 3.756-1.065.95-2.52 1.424-4.366 1.424h-8.425l-.4-5.423h7.718c.308 0 .554-.06.738-.181.205-.121.308-.283.308-.485 0-.283-.195-.646-.584-1.09l-4.766-5.575 3.935-3.757 5.197 6.241z" fill="#F6862B"/><path fill-rule="evenodd" clip-rule="evenodd" d="M53.7 14.304h-1.016c-.328 0-.564-.08-.707-.242-.144-.162-.216-.424-.216-.788V.308h-5.227v13.39c0 1.94.482 3.434 1.445 4.484.964 1.03 2.399 1.545 4.305 1.545H56.622c.84 0 1.527-.09 2.06-.272a3.276 3.276 0 001.415-.91c.676.788 1.814 1.182 3.413 1.182h3.768c1.865 0 3.341-.535 4.428-1.605 1.107-1.07 1.66-2.525 1.66-4.363V8.67h-5.135v4.817a.772.772 0 01-.277.606c-.164.142-.39.212-.676.212H63.787c-.656 0-.984-.282-.984-.848V8.67h-5.228v4.848c0 .525-.317.787-.953.787H53.7zm.4 11.755v-4.09h5.351v4.09h-5.35zm17.421-4.09v4.09h-9.04v-4.09h9.04z" fill="#F6862B"/><path d="M40.412 19.727c-1.968 0-2.951-.98-2.951-2.938 0-1.01.245-1.727.738-2.151.512-.425 1.25-.636 2.213-.636.964 0 1.692.211 2.184.636.492.424.738 1.14.738 2.15 0 1.96-.974 2.94-2.922 2.94z" fill="#1C274C"/><path fill-rule="evenodd" clip-rule="evenodd" d="M29.052 14.092a.908.908 0 01-.614.212H8.502l-.43 4.939h5.38c.574 0 .861.262.861.787 0 .445-.225.778-.676 1-.451.222-1.22.333-2.306.333H8.686c-1.168 0-2.03-.282-2.583-.848-.533-.566-.8-1.424-.8-2.575v-6.241H.047v6.362c0 2.727.748 4.857 2.244 6.392 1.517 1.556 3.618 2.333 6.304 2.333H10.9c1.62 0 3.065-.283 4.335-.848 1.271-.566 2.266-1.363 2.983-2.393.738-1.01 1.148-2.182 1.23-3.515a.666.666 0 00-.061-.303h8.989c1.865 0 3.341-.535 4.428-1.605 1.107-1.07 1.66-2.525 1.66-4.363V8.67H29.33v4.817a.772.772 0 01-.277.606zm.83 11.967v-4.09h-9.04v4.09h9.04zm-6.641 1.09v4.06h4.243v-4.06h-4.243z" fill="#1C274C"/><defs><linearGradient id="prefix__paint0_linear_146_245" x1="106.744" y1="30.359" x2="118.098" y2=".894" gradientUnits="userSpaceOnUse"><stop stop-color="#FF8C26"/><stop offset="1" stop-color="#FABA82"/></linearGradient><linearGradient id="prefix__paint1_linear_146_245" x1="111.993" y1="28.221" x2="111.993" y2="2.565" gradientUnits="userSpaceOnUse"><stop stop-color="#FBC094"/><stop offset="1" stop-color="#F58434"/></linearGradient></defs></svg>