<svg width="179" height="44" viewBox="0 0 179 44" fill="none" xmlns="http://www.w3.org/2000/svg">
<path fill-rule="evenodd" clip-rule="evenodd" d="M178.94 21.8483C178.94 33.9862 169.153 43.6966 156.921 43.6966H146.523C143.771 43.6966 141.63 41.5724 141.324 38.8414V38.5379C141.324 35.8069 143.771 33.3793 146.523 33.3793H156.921C163.343 33.3793 168.542 28.2207 168.542 21.8483C168.542 15.4759 163.343 10.3172 156.921 10.3172H146.523C143.771 10.3172 141.324 7.88966 141.324 5.15862V4.85517C141.63 2.12414 143.771 0 146.523 0H156.921C169.153 0 178.94 9.71035 178.94 21.8483Z" fill="url(#paint0_linear_125_246)"/>
<path fill-rule="evenodd" clip-rule="evenodd" d="M171.6 21.8483C171.6 31.862 163.343 40.0552 153.251 40.0552H144.382C143.159 40.0552 142.241 39.4483 141.324 38.8414V38.5379C141.324 35.8069 143.771 33.3793 146.523 33.3793H156.921C163.343 33.3793 168.542 28.2207 168.542 21.8483C168.542 15.4758 163.343 10.3172 156.921 10.3172H146.523C143.771 10.3172 141.324 7.88963 141.324 5.1586V4.85515C142.241 4.24825 143.159 3.64136 144.382 3.64136H153.251C163.343 3.64136 171.6 11.8345 171.6 21.8483Z" fill="url(#paint1_linear_125_246)"/>
<path fill-rule="evenodd" clip-rule="evenodd" d="M154 16L163.3 19.5L163.3 25.5L154 22L144.7 25.5V19.5L154 16Z" fill="#F6862B"/>
<path d="M123.665 13.423C124.84 14.8277 125.657 16.1033 126.116 17.25C126.575 18.368 126.804 19.5003 126.804 20.647C126.804 22.8543 126.059 24.6317 124.568 25.979C123.077 27.3263 121.042 28 118.462 28H106.68L106.121 20.303H116.914C117.344 20.303 117.688 20.217 117.946 20.045C118.233 19.873 118.376 19.6437 118.376 19.357C118.376 18.9557 118.104 18.4397 117.559 17.809L110.894 9.897L116.398 4.565L123.665 13.423Z" fill="#F6862B"/>
<path fill-rule="evenodd" clip-rule="evenodd" d="M75.095 20.303C75.0947 20.303 75.0943 20.303 75.094 20.303H73.675C73.2163 20.303 72.8866 20.1883 72.686 19.959C72.4853 19.7297 72.385 19.357 72.385 18.841V0.437012H65.075V19.443C65.075 22.195 65.7486 24.3163 67.096 25.807C68.4433 27.269 70.45 28 73.116 28H75.094C75.0948 28 75.0957 28 75.0966 28C75.0969 28 75.0973 28 75.0976 28H79.1826C80.3579 28 81.3183 27.871 82.0636 27.613C82.8376 27.355 83.4969 26.925 84.0416 26.323C84.9876 27.441 86.5786 28 88.8146 28H90.2569H90.2766H94.0839C96.6925 28 98.7565 27.2403 100.276 25.721C101.824 24.2017 102.598 22.1377 102.598 19.529V12.305H95.4169V19.142C95.4169 19.486 95.2879 19.7727 95.0299 20.002C94.8005 20.2027 94.4852 20.303 94.0839 20.303H90.2766H90.2569H89.2016C88.2843 20.303 87.8256 19.9017 87.8256 19.099V12.305H80.5156V19.185C80.5156 19.9303 80.0713 20.303 79.1826 20.303H75.0976C75.0967 20.303 75.0959 20.303 75.095 20.303ZM75.6566 36.987V31.182H83.1386V36.987H75.6566ZM100.018 31.182V36.987H87.3759V31.182H100.018Z" fill="#F6862B"/>
<path d="M56.5142 28C53.7622 28 52.3862 26.6097 52.3862 23.829C52.3862 22.3957 52.7302 21.378 53.4182 20.776C54.1349 20.174 55.1669 19.873 56.5142 19.873C57.8616 19.873 58.8792 20.174 59.5672 20.776C60.2552 21.378 60.5992 22.3957 60.5992 23.829C60.5992 26.6097 59.2376 28 56.5142 28Z" fill="white"/>
<path fill-rule="evenodd" clip-rule="evenodd" d="M40.6281 20.002C40.3988 20.2027 40.1121 20.303 39.7681 20.303H29.6201C29.6175 20.303 29.6148 20.3031 29.6122 20.3033C29.6098 20.3031 29.6074 20.303 29.605 20.303H11.889L11.287 27.312H18.812C19.6146 27.312 20.016 27.6847 20.016 28.43C20.016 29.0607 19.7006 29.5337 19.07 29.849C18.4393 30.1644 17.3643 30.322 15.845 30.322H12.147C10.513 30.322 9.30896 29.9207 8.53496 29.118C7.78963 28.3154 7.41697 27.097 7.41697 25.463V16.605H0.0639648V25.635C0.0639648 29.505 1.1103 32.5294 3.20296 34.708C5.3243 36.9154 8.26263 38.019 12.018 38.019H15.243C17.5076 38.019 19.5286 37.6177 21.306 36.815C23.0833 36.0124 24.4736 34.88 25.477 33.418C26.509 31.9847 27.0823 30.322 27.197 28.43C27.197 28.258 27.1683 28.1147 27.111 28H29.605C29.6076 28 29.6102 27.9999 29.6128 27.9997C29.6152 27.9999 29.6177 28 29.6201 28H39.6821C42.2908 28 44.3548 27.2403 45.8741 25.721C47.4221 24.2017 48.1961 22.1377 48.1961 19.529V12.305H41.0151V19.142C41.0151 19.486 40.8861 19.7727 40.6281 20.002ZM41.7891 36.987V31.182H29.1471V36.987H41.7891ZM32.5011 38.535V44.297H38.4351V38.535H32.5011Z" fill="white"/>
<defs>
<linearGradient id="paint0_linear_125_246" x1="149.275" y1="43.0897" x2="165.568" y2="1.43078" gradientUnits="userSpaceOnUse">
<stop stop-color="#FF8C26"/>
<stop offset="1" stop-color="#FABA82"/>
</linearGradient>
<linearGradient id="paint1_linear_125_246" x1="156.615" y1="40.0552" x2="156.615" y2="3.64136" gradientUnits="userSpaceOnUse">
<stop stop-color="#FBC094"/>
<stop offset="1" stop-color="#F58434"/>
</linearGradient>
</defs>
</svg>
