<svg width="38" height="44" viewBox="0 0 38 44" fill="none" xmlns="http://www.w3.org/2000/svg">
<path fill-rule="evenodd" clip-rule="evenodd" d="M37.9395 21.8483C37.9395 33.9862 28.1534 43.6966 15.9207 43.6966H5.52288C2.77052 43.6966 0.629792 41.5724 0.323975 38.8414V38.5379C0.323975 35.8069 2.77052 33.3793 5.52288 33.3793H15.9207C22.3428 33.3793 27.5417 28.2207 27.5417 21.8483C27.5417 15.4759 22.3428 10.3172 15.9207 10.3172H5.52288C2.77052 10.3172 0.323975 7.88966 0.323975 5.15862V4.85517C0.629792 2.12414 2.77052 0 5.52288 0H15.9207C28.1534 0 37.9395 9.71035 37.9395 21.8483Z" fill="url(#paint0_linear_108_2)"/>
<path fill-rule="evenodd" clip-rule="evenodd" d="M30.5999 21.8483C30.5999 31.862 22.3428 40.0552 12.2509 40.0552H3.38215C2.15888 40.0552 1.24143 39.4483 0.323975 38.8414V38.5379C0.323975 35.8069 2.77052 33.3793 5.52288 33.3793H15.9207C22.3428 33.3793 27.5417 28.2207 27.5417 21.8483C27.5417 15.4758 22.3428 10.3172 15.9207 10.3172H5.52288C2.77052 10.3172 0.323975 7.88963 0.323975 5.1586V4.85515C1.24143 4.24825 2.15888 3.64136 3.38215 3.64136H12.2509C22.3428 3.64136 30.5999 11.8345 30.5999 21.8483Z" fill="url(#paint1_linear_108_2)"/>
<path fill-rule="evenodd" clip-rule="evenodd" d="M13 16L22.3 19.5L22.3 25.5L13 22L3.70001 25.5V19.5L13 16Z" fill="#F6862B"/>
<defs>
<linearGradient id="paint0_linear_108_2" x1="8.27523" y1="43.0897" x2="24.5683" y2="1.43078" gradientUnits="userSpaceOnUse">
<stop stop-color="#FF8C26"/>
<stop offset="1" stop-color="#FABA82"/>
</linearGradient>
<linearGradient id="paint1_linear_108_2" x1="15.6149" y1="40.0552" x2="15.6149" y2="3.64136" gradientUnits="userSpaceOnUse">
<stop stop-color="#FBC094"/>
<stop offset="1" stop-color="#F58434"/>
</linearGradient>
</defs>
</svg>
